<?xml version="1.0" encoding="utf-8" ?><svg xmlns="http://www.w3.org/2000/svg" xmlns:xlink="http://www.w3.org/1999/xlink" width="1024" height="1024" viewBox="0 0 1024 1024"><path fill="#F4A204" d="M783.723 324.048C789.902 322.447 800.867 322.875 807.596 322.851L837.25 322.786C854.188 322.804 871.126 322.263 888.065 322.796C896.194 323.052 905.016 322.774 912.932 324.768C926.868 328.25 936.084 336.769 942.153 349.59C945.195 357.714 944.161 374.905 944.177 384.072L944.492 423.404L944.353 476.898C944.284 484.977 944.472 495.368 943.984 503.312L944.061 614.337C944.06 622.413 944.633 658.636 943.13 663.903L942.893 664.765C943.341 683.628 924.337 700.404 906.442 701.435C896.161 702.027 885.723 701.954 875.425 701.978L820.851 702.076L656.693 702.887L301.62 703.514C241.876 703.458 182.117 703.578 122.374 703.12C110.335 703.397 99.6109 699.152 91.1251 690.469C80.7008 679.803 81.7965 669.087 82.0444 655.35C81.543 645.665 81.8778 631.225 81.9886 621.36C81.7184 615.265 81.8016 608.385 81.9041 602.261C82.5354 564.521 81.1333 526.284 82.0686 488.582C80.8431 455.507 82.5521 420.999 82.7584 387.885C82.8252 377.164 81.3267 350.357 88.7075 342.822C92.3825 335.491 104.764 326.892 113.191 326.885C115.304 326.968 124.497 324.524 127.812 324.077C132.913 321.757 156.764 322.473 162.665 324.16C168.776 323.967 175.57 324.281 181.785 324.306L223.809 324.405C231.385 324.421 241.945 324.658 249.203 323.981C256.256 322.038 304.89 322.415 312.142 324.111C338.19 325.272 370.021 324.29 396.294 324.282L568.687 324.233L711.099 324.392L757.209 324.335C765.974 324.308 774.997 324.502 783.723 324.048Z"/><path fill="#B55A00" d="M90.6993 664.7C88.5285 659.713 89.5539 627.166 89.5846 619.383L89.8859 532.819L89.7835 423.704C89.7727 406.24 89.6621 388.767 89.7148 371.308C89.728 366.928 89.9985 359.26 91.5971 355.335C97.552 340.714 111.519 332.862 126.931 332.745C141.627 332.632 156.204 332.6 170.85 332.587L255.556 332.611L492.611 332.628L763.801 332.65L850.044 332.601C865.214 332.586 880.461 332.518 895.632 332.653C901.662 332.707 907.002 333.15 912.642 335.458C920.273 338.58 928.124 344.202 931.419 352.009C933.019 355.802 933.315 361.974 933.251 366.138C932.944 385.898 932.962 405.637 932.98 425.395L932.98 579.3L932.984 634.843C932.992 640.681 933.453 660.395 932.315 664.481C932.528 665.798 932.55 666.964 933.342 667.99C932.616 672.464 929.619 672.187 930.66 674.843C929.094 676.443 927.302 677.075 926.422 678.253C923.737 679.626 921.373 680.859 918.321 681.326C913.156 684.646 906.916 687.777 900.734 687.962C878.565 688.625 856.166 688.446 833.999 688.628L707.25 689.408L350.106 690.134L181.309 690.039L141.64 689.99C134.27 689.986 120.037 690.838 113.597 687.82C110.587 687.242 108.864 686.375 106.093 685.17C103.166 685.447 101.992 682.58 99.6195 682.152C99.3202 683.332 99.626 683.239 100.45 684.686L99.9691 685.217C97.4026 683.338 88.6975 670.827 89.2001 667.51L90.5712 668.445C90.6762 667.421 90.6683 665.78 90.6993 664.7Z"/><path fill="#E79716" d="M90.6993 664.7C95.6123 672.722 99.0939 676.9 106.783 682.596C108.047 683.533 112.796 686.867 113.597 687.82C110.587 687.242 108.864 686.375 106.093 685.17C103.166 685.447 101.992 682.58 99.6195 682.152C99.3202 683.332 99.626 683.239 100.45 684.686L99.9691 685.217C97.4026 683.338 88.6975 670.827 89.2001 667.51L90.5712 668.445C90.6762 667.421 90.6683 665.78 90.6993 664.7Z"/><path fill="#FDD780" d="M99.9691 685.217C97.4026 683.338 88.6975 670.827 89.2001 667.51L90.5712 668.445C92.8475 676.096 100.427 680.656 106.093 685.17C103.166 685.447 101.992 682.58 99.6195 682.152C99.3202 683.332 99.626 683.239 100.45 684.686L99.9691 685.217Z"/><path fill="#E79716" d="M918.321 681.326C919.544 679.9 921.584 678.42 923.01 676.991C926.94 673.056 929.579 669.246 932.315 664.481C932.528 665.798 932.55 666.964 933.342 667.99C932.616 672.464 929.619 672.187 930.66 674.843C929.094 676.443 927.302 677.075 926.422 678.253C923.737 679.626 921.373 680.859 918.321 681.326Z"/><path fill="#F4A204" d="M574.632 343.358C576.189 342.428 623.45 342.814 628.126 342.815L825.735 343.05L868.273 343.184C881.662 343.216 906.242 340.966 914.014 356.178C915.637 359.356 916.262 365.975 916.253 369.765C917.642 373.387 918.753 376.241 918.853 380.198C919.228 395.018 919.105 410.026 919.097 424.849L919.046 506.057L919.062 591.786C919.066 606.845 919.163 621.924 918.92 636.982C918.851 641.232 917.601 647.77 916.017 651.717C912.427 660.66 899.788 669.308 890.025 669.307C875.857 670.285 857.76 669.859 843.246 669.896L762.585 670.135L490.925 670.658L231.7 670.553L174.937 670.519C164.311 670.515 137.326 671.345 128.987 668.766C121.049 666.187 116.794 660.006 113.241 652.971C108.777 650.69 105.796 648.167 103.633 643.494C102.486 641.014 100.864 638.23 100.68 635.475C99.5848 619.086 100.671 602.662 100.691 586.253L100.734 486.869L100.676 412.014C100.664 408.355 100.592 404.642 100.557 401.003C100.419 386.227 98.2047 373.395 106.558 360.246C119.326 340.149 139.926 343.214 160.197 343.158L220.189 342.937L494.752 342.809C502.257 342.807 565.858 342.43 567.368 343.366L574.632 343.358Z"/><path fill="#BC6301" d="M113.241 652.971C108.777 650.69 105.796 648.167 103.633 643.494C102.486 641.014 100.864 638.23 100.68 635.475C99.5848 619.086 100.671 602.662 100.691 586.253L100.734 486.869L100.676 412.014C100.664 408.355 100.592 404.642 100.557 401.003C100.419 386.227 98.2047 373.395 106.558 360.246C119.326 340.149 139.926 343.214 160.197 343.158L220.189 342.937L494.752 342.809C502.257 342.807 565.858 342.43 567.368 343.366C536.886 343.842 505.904 343.264 475.352 343.421C388.026 343.87 300.448 342.509 213.155 344.229C194.949 344.588 176.349 344.042 158.12 344.211C154.656 344.243 139.205 343.911 136.679 344.455C137.735 347.052 141.33 351.654 144.023 352.7C146.614 353.707 210.346 352.912 218.901 353.064C212.521 353.65 203.376 353.436 196.696 353.47L157.105 353.635C152.982 353.658 147.202 354.087 143.321 353.807C125.76 352.542 113.066 363.763 111.697 381.347C110.566 395.877 111.131 411.929 111.151 427.015L111.185 509.914L111.18 596.045C111.133 609.818 109.654 641.163 113.241 652.971Z"/><path fill="#FECA70" d="M128.987 668.766C138.068 663.699 732.212 666.553 792.641 667.079L853.864 667.578C862.574 667.625 881.203 667.262 888.976 668.323C889.519 668.755 889.634 668.759 890.025 669.307C875.857 670.285 857.76 669.859 843.246 669.896L762.585 670.135L490.925 670.658L231.7 670.553L174.937 670.519C164.311 670.515 137.326 671.345 128.987 668.766Z"/><path fill="#BC6301" d="M574.632 343.358C576.189 342.428 623.45 342.814 628.126 342.815L825.735 343.05L868.273 343.184C881.662 343.216 906.242 340.966 914.014 356.178C915.637 359.356 916.262 365.975 916.253 369.765C906.05 354.18 895.866 354.735 879.027 354.069C853.295 353.051 827.658 354.242 801.946 353.217C803.292 352.723 813.057 353.127 817.324 353C838.256 352.391 859.382 353.557 880.213 352.874C879.743 352.889 889.725 344.278 889.667 344.376C887.625 344.018 870.616 344.239 867.895 344.242L812.5 344.225L679.623 343.417C644.978 343.41 609.177 343.872 574.632 343.358Z"/><path fill="#FEFEFE" d="M701.778 371.718C718.367 370.505 749.115 371.406 764.056 378.019C789.898 389.457 787.994 418.267 787.49 441.992C787.008 464.667 791.649 486.237 765.015 495.342C792.976 503.591 788.092 538.967 788.053 561.656C788.026 577.675 789.621 601.657 785.972 616.5C779.11 644.415 747.115 646.977 723.52 647.558C704.442 648.496 680.046 647.995 661.837 642C648.533 637.62 638.517 622.689 637.498 608.994C636.506 595.67 636.846 581.554 636.804 568.087C637.16 553.913 636.062 539.473 637.313 525.346C638.698 509.697 644 501.222 658.433 495.192C642.935 490.937 636.952 480.267 636.885 464.675C637.697 446.022 634.351 423.404 638.629 405.357C646.137 373.683 677.011 372.942 701.778 371.718Z"/><path fill="#F4A204" d="M703.683 522.183C711.559 521.77 725.583 520.748 732.321 525.752C740.804 532.053 736.903 548.421 737.694 558.133C738.278 565.299 737.673 575.668 737.135 583.101C736.508 591.769 728.787 594.24 721.123 594.817C710.44 595.113 688.027 597.496 687.386 582.284C686.746 567.079 686.543 549.551 687.541 534.299C688.091 525.895 696.349 522.934 703.683 522.183Z"/><path fill="#F4A204" d="M700.296 419.635C740.535 417.878 736.38 422.186 736.329 459.332C736.316 469.065 732.896 475.062 723.116 476.944C696.902 478.608 685.653 479.614 687.695 449.983C688.567 437.326 683.528 423.601 700.296 419.635Z"/><path fill="#FEFEFE" d="M322.383 371.721C341.113 371.2 371.628 370.213 388.091 379.323C397.368 384.456 403.886 393.06 406.779 403.214C409.714 413.512 409.937 458.997 408.258 470.423C407.588 474.978 406.233 479.557 403.907 483.555C400.14 490.031 393.772 493.43 386.772 495.26C404.324 501.779 409.095 515.547 409.402 533.025C409.663 547.898 409.343 562.816 409.476 577.694C409.506 581.144 409.281 585.852 409.473 589.167C412.267 637.522 389.245 646.738 346.073 648.073C326.602 649.071 299.445 648.818 281.286 641.498C268.336 636.154 259.398 621.123 259.2 607.29C258.805 579.787 258.019 551.398 259.302 523.921C259.907 510.973 267.325 499.636 279.903 495.463C264.801 490.753 259.867 480.664 258.999 465.646C258.488 456.805 258.93 447.647 258.869 438.886C258.743 420.768 257.221 401.472 270.421 387.063C283.236 372.662 304.43 372.556 322.383 371.721Z"/><path fill="#F4A204" d="M325.519 522.194C336.555 521.46 359.441 519.721 359.489 535.856C359.534 551.449 360.212 568.502 359.048 584.068C358.409 592.631 349.997 594.835 342.625 595.229C304.462 596.076 308.863 590.171 308.901 554.481C308.917 539.172 305.142 523.968 325.519 522.194Z"/><path fill="#F4A204" d="M330.934 419.247C337.213 419.183 348.633 418.257 353.331 422.833C360.003 429.33 357.61 443.744 358.059 452.52C358.395 459.076 358.33 468.228 353.732 473.138C349.63 477.518 342.285 477.194 336.707 477.298C332.403 477.361 327.748 477.573 323.445 477.221C306.099 475.805 309.962 456.546 309.659 444.171C309.189 424.955 311.089 419.526 330.934 419.247Z"/><path fill="#FEFEFE" d="M514.757 371.726C565.732 370.266 602.733 372.644 598.264 435.411C596.756 456.601 604.849 487.469 576.327 495.151C587.806 499.927 595.39 507.573 597.349 520.355C599.689 535.618 598.256 551.957 598.617 567.448C598.906 579.871 598.583 592.59 598.325 605.01C597.999 615.892 592.766 628.451 583.95 635.583C563.924 651.786 516.237 647.689 491.775 646.364C479.764 645.713 464.726 641.493 457.211 631.788C446.92 618.497 448.041 602.851 448.027 586.994C448.022 581.677 447.666 573.569 448.218 568.578C449.486 567.794 450.472 567.98 452.121 567.874C465.831 566.289 484.306 565.078 498.102 564.406C498.054 576.963 495.387 593.909 512.952 594.434C527.828 594.878 548.339 598.189 547.804 578.035C547.459 563.696 548.698 547.833 547.275 533.689C545.888 519.896 520.845 522.849 511.567 522.871L511.603 477.193C523.955 476.714 547.146 481.599 547.427 462.104C547.557 453.055 549.334 432.392 544.31 425.69C539.51 419.29 508.098 418.595 501.798 425.131C497.215 429.963 497.949 439.088 497.972 445.363C482.385 443.991 463.657 443.034 447.994 442.246C447.815 423.47 445.681 401.516 459.274 386.742C472.619 372.239 496.303 372.411 514.757 371.726Z"/><path fill="#FDD780" d="M865.485 359.324C890.083 358.156 895.276 367.66 895.027 390.498C894.043 389.518 894.463 389.897 894.054 388.177C893.124 379.702 892.056 371.025 884.881 365.163C879.412 360.694 872.158 360.577 865.485 359.324Z"/><path fill="#FECA70" d="M894.054 388.177C894.463 389.897 894.043 389.518 895.027 390.498C895.829 392.9 895.235 404.096 895.032 407.069C893.883 403.727 893.631 391.933 894.054 388.177Z"/><defs><linearGradient id="gradient_0" gradientUnits="userSpaceOnUse" x1="514.50446" y1="706.12964" x2="510.54831" y2="431.71286"><stop offset="0" stop-color="#B45501"/><stop offset="1" stop-color="#DC950B"/></linearGradient></defs><path fill="url(#gradient_0)" d="M936.622 350.956C936.848 348.602 936.317 349.373 937.706 348.2C939.551 348.436 940.096 348.911 941.495 350.494L942.153 349.59C945.195 357.714 944.161 374.905 944.177 384.072L944.492 423.404L944.353 476.898C944.284 484.977 944.472 495.368 943.984 503.312L944.061 614.337C944.06 622.413 944.633 658.636 943.13 663.903L942.893 664.765C943.341 683.628 924.337 700.404 906.442 701.435C896.161 702.027 885.723 701.954 875.425 701.978L820.851 702.076L656.693 702.887L301.62 703.514C241.876 703.458 182.117 703.578 122.374 703.12C110.335 703.397 99.6109 699.152 91.1251 690.469C80.7008 679.803 81.7965 669.087 82.0444 655.35C82.3889 657.472 83.6207 666.849 84.0358 668.087C87.579 681.056 93.3228 687.462 105.149 694.141C109.08 696.361 117.417 697.24 121.893 697.286C142.813 697.503 163.807 697.462 184.731 697.472L298.564 697.498L662.25 696.856L840.282 696.003L883.067 695.659C896.555 695.474 910.33 697.484 922.045 689.935C932.781 683.016 936.498 676.729 938.99 664.543C936.239 668.835 934.659 671.604 930.66 674.843C929.619 672.187 932.616 672.464 933.342 667.99C934.438 665.494 937.387 658.494 937.574 656.107C938.206 648.036 937.982 639.619 937.982 631.497L937.957 586.462C937.935 557.66 938.042 528.792 937.966 499.998C937.874 465.525 936.531 429.039 937.541 394.708C937.289 391.425 937.725 387.526 937.881 384.175C938.418 372.565 938.685 362.488 936.622 350.956Z"/><path fill="#E79716" d="M936.622 350.956C936.848 348.602 936.317 349.373 937.706 348.2C939.551 348.436 940.096 348.911 941.495 350.494C943.908 360.047 942.59 367.542 942.663 377.358C942.677 379.237 942.732 384.863 942.544 386.24C941.376 389.578 941.718 394.027 941.734 397.576C941.797 411.861 943.708 422.881 938.147 436.483C937.868 429.971 938.929 398.234 937.541 394.708C937.289 391.425 937.725 387.526 937.881 384.175C938.418 372.565 938.685 362.488 936.622 350.956Z"/><path fill="#FEFEFE" d="M941.495 350.494L942.153 349.59C945.195 357.714 944.161 374.905 944.177 384.072L944.492 423.404L944.353 476.898C944.284 484.977 944.472 495.368 943.984 503.312L942.584 503.944C942.499 464.821 943.036 425.339 942.544 386.24C942.732 384.863 942.677 379.237 942.663 377.358C942.59 367.542 943.908 360.047 941.495 350.494Z"/><path fill="#FEFEFE" d="M942.584 503.944L943.984 503.312L944.061 614.337C944.06 622.413 944.633 658.636 943.13 663.903L942.893 664.765C942.286 660.3 942.369 651.414 942.347 646.776L942.426 612.485L942.584 503.944Z"/><defs><linearGradient id="gradient_1" gradientUnits="userSpaceOnUse" x1="511.54846" y1="693.1535" x2="511.49222" y2="680.21191"><stop offset="0" stop-color="#FFE2A7"/><stop offset="1" stop-color="#FCFFF0"/></linearGradient></defs><path fill="url(#gradient_1)" d="M926.422 678.253C926.698 678.716 927.285 679.325 926.951 679.799C921.44 687.608 910.888 692.543 901.523 692.553C888.46 692.566 875.822 692.569 862.969 692.632L780.63 693.094L495.525 694.006L234.505 694.144L163.738 694.146C149.136 694.234 134.527 694.402 119.926 694.346C112.006 694.316 105.198 691.044 99.9691 685.217L100.45 684.686C99.626 683.239 99.3202 683.332 99.6195 682.152C101.992 682.58 103.166 685.447 106.093 685.17C108.864 686.375 110.587 687.242 113.597 687.82C120.037 690.838 134.27 689.986 141.64 689.99L181.309 690.039L350.106 690.134L707.25 689.408L833.999 688.628C856.166 688.446 878.565 688.625 900.734 687.962C906.916 687.777 913.156 684.646 918.321 681.326C921.373 680.859 923.737 679.626 926.422 678.253Z"/><path fill="#FDD780" d="M88.7075 342.822L89.1123 343.04C90.714 342.258 91.493 340.251 92.702 338.962C93.6634 337.937 95.3697 336.817 96.5659 335.986L96.6764 336.282L94.4205 338.902L94.6874 339.583C91.7264 343.711 87.3684 350.462 86.7508 355.534C85.2262 368.058 85.9657 383.158 86.0088 395.946L85.7657 468.211C85.7351 470.991 85.55 490.601 85.1464 492.257C85.0332 489.595 84.9425 483.381 84.3063 481.127C82.8453 483.203 82.8548 490.508 82.7179 493.311C82.1976 491.242 82.1778 490.74 82.0686 488.582C80.8431 455.507 82.5521 420.999 82.7584 387.885C82.8252 377.164 81.3267 350.357 88.7075 342.822Z"/><path fill="#EDD6AB" d="M783.723 324.048C789.902 322.447 800.867 322.875 807.596 322.851L837.25 322.786C854.188 322.804 871.126 322.263 888.065 322.796C896.194 323.052 905.016 322.774 912.932 324.768C911.883 325.368 900.126 324.099 895.458 324.546C874.317 325.489 846.579 324.588 824.983 324.563L800.414 324.606C795.888 324.611 787.981 324.76 783.723 324.048Z"/><path fill="#FDD780" d="M895.458 324.546C900.126 324.099 911.883 325.368 912.932 324.768C926.868 328.25 936.084 336.769 942.153 349.59L941.495 350.494C940.096 348.911 939.551 348.436 937.706 348.2C936.317 349.373 936.848 348.602 936.622 350.956C931.388 333.507 911.78 326.403 895.458 324.546Z"/><path fill="#EDD6AB" d="M249.203 323.981C256.256 322.038 304.89 322.415 312.142 324.111C306.987 324.868 253.808 324.841 249.203 323.981Z"/><path fill="#E79716" d="M81.9886 621.36C84.944 625.966 83.2358 653.587 84.1617 659.997C84.36 661.369 84.1685 666.567 84.0358 668.087C83.6207 666.849 82.3889 657.472 82.0444 655.35C81.543 645.665 81.8778 631.225 81.9886 621.36Z"/><path fill="#EDD6AB" d="M88.7075 342.822C92.3825 335.491 104.764 326.892 113.191 326.885C105.537 332.31 102.646 331.042 94.6874 339.583L94.4205 338.902L96.6764 336.282L96.5659 335.986C95.3697 336.817 93.6634 337.937 92.702 338.962C91.493 340.251 90.714 342.258 89.1123 343.04L88.7075 342.822Z"/><path fill="#EDD6AB" d="M127.812 324.077C132.913 321.757 156.764 322.473 162.665 324.16C157.525 324.729 132.874 324.912 127.812 324.077Z"/><path fill="#E79716" d="M86.245 593.966C87.43 595.754 87.0629 656.453 86.9755 663.773C85.1262 660.556 85.841 643.924 85.8609 638.906L86.245 593.966Z"/></svg>