<svg xmlns="http://www.w3.org/2000/svg" xmlns:xlink="http://www.w3.org/1999/xlink" viewBox="-843.5 219.6 32.7 56" xmlns:v="https://vecta.io/nano"><path d="M-843.5 219.6h32.7v56h-32.7z" fill="#0000f9"/><path d="M-836.8 223.6h19.4v12.1h-19.4z" fill="#fff"/><defs><path id="A" d="M-836 224.5h17.8v10.4H-836z"/></defs><clipPath id="B"><use xlink:href="#A"/></clipPath><path d="M-836 224.5h17.8v10.4H-836z" clip-path="url(#B)" fill="#fff"/><defs><path id="C" d="M-836 224.5h17.8v10.4H-836z"/></defs><clipPath id="D"><use xlink:href="#C"/></clipPath><path d="M-836 224.5h17.8v1.7H-836z" clip-path="url(#D)" fill="#0000f9"/><defs><path id="E" d="M-836 224.5h17.8v10.4H-836z"/></defs><clipPath id="F"><use xlink:href="#E"/></clipPath><path d="M-836 233.3h17.8v1.7H-836z" clip-path="url(#F)" fill="#0000f9"/><defs><path id="G" d="M-836 224.5h17.8v10.4H-836z"/></defs><clipPath id="H"><use xlink:href="#G"/></clipPath><path d="M-825.4 229.7l.9-1.5h-1.8l-.9-1.5-.9 1.5h-1.8l.9 1.5-.9 1.5h1.8l.9 1.5.9-1.5h1.8l-.9-1.5zm-2-1.3l.3-.5.3.5h-.6zm1.6 1.8l.3.5h-.6l.3-.5zm-.3-1.4h.6l-.3.5-.3-.5zm-.7 2.3l-.3.5-.3-.5h.6zm-.9-.5l-.5-.9.5-.9h1.1l.5.9-.5.9h-1.1zm-.5 0h-.6l.3-.5.3.5zm-.5-1.8h.6l-.3.5-.3-.5z" clip-path="url(#H)" fill="#0000f9"/><path d="M-836 262.1v-21.9h3.7v21.9h-3.7zm7.3 0v-21.8h3.7V259h6.8v3.1h-10.5zm-5.1 4.2v1.1c0 .4 0 .7-.1.9 0 .2-.1.4-.2.5l-.2.3c-.1.2-.2.3-.2.4s-.1.2-.1.4v.7h-1.1v-.7c0-.2 0-.4.1-.5s.2-.3.3-.6l.1-.1c.1-.2.2-.4.2-.7v-.5h-2.2V265h1.1v1.6h2.3zm3.7 2.4l1.2 1.8h-1.3l-1.4-2c-.2.2-.3.6-.3 1.2l-.1.8h-1.1l.1-.9c.1-.6.2-1 .3-1.3.2-.3.3-.5.6-.6l-1-1.4h1.3l1.2 1.7c.2-.1.3-.5.4-1l.1-.7h1v.5c-.1.6-.2 1-.3 1.3-.2.2-.4.4-.7.6zm5.1 1.8h-1.1v-2c0-.4-.1-.8-.3-.9-.2-.2-.6-.3-1-.3-.2 0-.6 0-1 .1l-.1-.9c.4-.1.8-.1 1.3-.1.7 0 1.3.2 1.7.5s.6.8.6 1.5v2.1zm2.1-1.5c.1.2.2.4.4.5s.5.2.7.2c.4 0 .8-.1 1-.4s.4-.8.4-1.5l.1-1.5h1.1l-.1 1.6c-.1.7-.2 1.2-.3 1.5-.2.3-.4.6-.8.8s-.8.4-1.4.4c-.7 0-1.3-.2-1.7-.7s-.6-1.2-.6-2.1v-1.4h1.1v1.1.6.3c.2 0 .3 0 .5-.1l.3-.3c0-.1.1-.4.1-.8v-.7h1.1l-.1 1c0 .3 0 .5-.1.6a.76.76 0 0 1-.2.4c-.1.1-.3.3-.5.4-.3 0-.6.1-1 .1zm5.7-2.7v2.3h-1.1v-2.3h1.1z" fill="#fff"/></svg>